<svg width="18" height="8" viewBox="0 0 18 8" fill="none" xmlns="http://www.w3.org/2000/svg">
<path d="M1.33923 3.11819C1.20482 3.26421 1.1695 3.47592 1.24923 3.65767C1.32895 3.83942 1.50864 3.95681 1.70711 3.95681L17.4876 3.95681C17.4928 3.96365 17.5 3.97779 17.5 4C17.5 4.02221 17.4928 4.03635 17.4876 4.04319L1.70711 4.04318C1.50864 4.04318 1.32895 4.16057 1.24923 4.34233C1.1695 4.52408 1.20482 4.73579 1.33923 4.88181L3.66766 7.41135C3.67331 7.41749 3.68198 7.4325 3.68198 7.45681C3.68198 7.46707 3.68044 7.47567 3.67823 7.48264L0.514321 4.04546C0.508671 4.03932 0.5 4.02432 0.5 4C0.5 3.97568 0.508671 3.96067 0.514323 3.95453L3.67823 0.517354C3.68044 0.524331 3.68198 0.53293 3.68198 0.543185C3.68198 0.567502 3.67331 0.582509 3.66766 0.588649L1.33923 3.11819Z" fill="#2F80ED" stroke="#E0E0E0" stroke-linejoin="round"/>
</svg>
