<?xml version="1.0" encoding="UTF-8"?>
<svg width="24px" height="24px" viewBox="0 0 24 24" version="1.1" xmlns="http://www.w3.org/2000/svg" xmlns:xlink="http://www.w3.org/1999/xlink">
    <!-- Generator: Sketch 52.6 (67491) - http://www.bohemiancoding.com/sketch -->
    <title>Desktop</title>
    <desc>Created with Sketch.</desc>
    <g id="Desktop" stroke="none" stroke-width="1" fill="none" fill-rule="evenodd">
        <g id="reddit" transform="translate(4.000000, 5.000000)" fill="#6F6F6F" fill-rule="nonzero">
            <path d="M16.3333333,6.65514889 C16.3333333,5.66222222 15.5221111,4.85508333 14.5250778,4.85508333 C14.0385,4.85508333 13.5975,5.04972222 13.2728556,5.36277778 C12.0410889,4.55223222 10.3743889,4.03637111 8.52872222,3.97036111 L9.53796667,0.792843333 L12.2710778,1.43325 L12.2670333,1.47272222 C12.2670333,2.28462111 12.9305556,2.94476 13.7465222,2.94476 C14.5618667,2.94476 15.2246889,2.28462111 15.2246889,1.47272222 C15.2246889,0.660819444 14.5611667,0 13.7465222,0 C13.1204111,0 12.5868556,0.390638889 12.3711,0.938482222 L9.42503333,0.247722222 C9.29638889,0.216416667 9.16572222,0.290597222 9.12558889,0.417180556 L7.99991111,3.96083333 C6.06851,3.98397222 4.31880556,4.50391667 3.03187111,5.33895444 C2.70928778,5.04087111 2.28122222,4.85439889 1.80755556,4.85439889 C0.810537778,4.85439889 0,5.66222222 0,6.65514889 C0,7.31528778 0.362736111,7.8876 0.896287778,8.20065556 C0.860906667,8.39261111 0.83776,8.58658889 0.83776,8.78391111 C0.83776,11.4455444 4.10987111,13.6111111 8.13267778,13.6111111 C12.1554222,13.6111111 15.4282333,11.4455444 15.4282333,8.78391111 C15.4282333,8.59747778 15.4084778,8.41368889 15.3771333,8.2327 C15.9433556,7.92843333 16.3333333,7.33978778 16.3333333,6.65514889 Z M4.61144444,7.89102222 C4.61144444,7.30031556 5.09463889,6.81916667 5.68808333,6.81916667 C6.28152778,6.81916667 6.76403778,7.30031556 6.76403778,7.89102222 C6.76403778,8.48174444 6.28152778,8.96225556 5.68808333,8.96225556 C5.09463889,8.96225556 4.61144444,8.48174444 4.61144444,7.89102222 Z M10.7779778,11.0685556 C10.2355556,11.6082556 9.3842,11.8709111 8.17553333,11.8709111 L8.16666667,11.8688889 L8.1578,11.8709111 C6.94847222,11.8709111 6.09710111,11.6082556 5.55537111,11.0685556 C5.45669444,10.9705556 5.45669444,10.8106444 5.55537111,10.7126444 C5.65405556,10.6139444 5.81466667,10.6139444 5.91335111,10.7126444 C6.35571222,11.1529444 7.09002778,11.3666 8.1578,11.3666 L8.16666667,11.3687 L8.17553333,11.3666 C9.24326667,11.3666 9.97764444,11.1522444 10.4199667,10.7119444 C10.5186667,10.6132444 10.6792778,10.6139444 10.7779778,10.7119444 C10.8766778,10.8106444 10.8766778,10.9698556 10.7779778,11.0685556 Z M10.6493333,8.96225556 C10.0558889,8.96225556 9.57335556,8.48174444 9.57335556,7.89102222 C9.57335556,7.30031556 10.0558889,6.81916667 10.6493333,6.81916667 C11.2427778,6.81916667 11.7253111,7.30031556 11.7253111,7.89102222 C11.7253111,8.48174444 11.2427778,8.96225556 10.6493333,8.96225556 Z" id="Shape"></path>
        </g>
    </g>
</svg>