<?xml version="1.0" encoding="UTF-8"?>
<svg width="24px" height="24px" viewBox="0 0 24 24" version="1.1" xmlns="http://www.w3.org/2000/svg" xmlns:xlink="http://www.w3.org/1999/xlink">
    <!-- Generator: Sketch 52.6 (67491) - http://www.bohemiancoding.com/sketch -->
    <title>Desktop</title>
    <desc>Created with Sketch.</desc>
    <g id="Desktop" stroke="none" stroke-width="1" fill="none" fill-rule="evenodd">
        <g id="Vector-(5)" transform="translate(6.000000, 6.000000)" fill="#757575" fill-rule="nonzero">
            <path d="M10.5702857,0.285853714 L1.42745143,0.285853714 C0.796026857,0.285853714 0.284598,0.797282571 0.284598,1.42871143 L0.284598,10.5715714 C0.284598,11.2030286 0.796026857,11.7144 1.42745143,11.7144 L10.5702857,11.7144 C11.2017429,11.7144 11.7132,11.2030286 11.7132,10.5715714 L11.7132,1.42871143 C11.7132,0.797282571 11.2017429,0.285853714 10.5702857,0.285853714 Z M3.71316857,10.5715714 L1.42745143,10.5715714 L1.42745143,8.28585429 L3.71316857,8.28585429 L3.71316857,10.5715714 Z M3.71316857,7.143 L1.42745143,7.143 L1.42745143,4.85728286 L3.71316857,4.85728286 L3.71316857,7.143 Z M7.14174,10.5715714 L4.85602286,10.5715714 L4.85602286,8.28585429 L7.14174,8.28585429 L7.14174,10.5715714 Z M7.14174,7.143 L4.85602286,7.143 L4.85602286,4.85728286 L7.14174,4.85728286 L7.14174,7.143 Z M10.5702857,10.5715714 L8.28459429,10.5715714 L8.28459429,8.28585429 L10.5702857,8.28585429 L10.5702857,10.5715714 Z M10.5702857,7.143 L8.28459429,7.143 L8.28459429,4.85728286 L10.5702857,4.85728286 L10.5702857,7.143 Z" id="Shape"></path>
        </g>
    </g>
</svg>