<?xml version="1.0" encoding="UTF-8"?>
<svg width="24px" height="24px" viewBox="0 0 24 24" version="1.1" xmlns="http://www.w3.org/2000/svg" xmlns:xlink="http://www.w3.org/1999/xlink">
    <!-- Generator: Sketch 52.6 (67491) - http://www.bohemiancoding.com/sketch -->
    <title>Desktop</title>
    <desc>Created with Sketch.</desc>
    <g id="Desktop" stroke="none" stroke-width="1" fill="none" fill-rule="evenodd">
        <g id="unlock-icon" transform="translate(3.000000, 0.000000)" fill="#FFFFFF" fill-rule="nonzero">
            <path d="M9.50001341,18.2856574 C10.8122057,18.2856574 11.8750226,17.2628939 11.8750226,16.0000495 C11.8750226,14.7371567 10.8122057,13.7142963 9.50001341,13.7142963 C8.18782111,13.7142963 7.12500419,14.7371567 7.12500419,16.0000495 C7.12500419,17.2628939 8.18782111,18.2856574 9.50001341,18.2856574 Z M16.6251081,8.00000215 L15.4374946,8.00000215 L15.4374946,5.71428126 C15.4374946,2.55999385 12.7775184,0 9.50001341,0 C6.2225084,0 3.56249874,2.55999385 3.56249874,5.71428126 L5.81876337,5.71428126 C5.81876337,3.75999449 7.46938531,2.17142759 9.50001341,2.17142759 C11.5306415,2.17142759 13.1812635,3.75999449 13.1812635,5.71428126 L13.1812635,8.00000215 L2.37500251,8.00000215 C1.06281021,8.00000215 0,9.02286253 0,10.285723 L0,21.7142307 C0,22.9770751 1.06281021,24 2.37500251,24 L16.6251081,24 C17.9372837,24 19,22.9770751 19,21.7142307 L19,10.285723 C19,9.02286253 17.9372837,8.00000215 16.6251081,8.00000215 Z M16.6251081,21.7142307 L2.37500251,21.7142307 L2.37500251,10.285723 L16.6251081,10.285723 L16.6251081,21.7142307 Z" id="Shape"></path>
        </g>
    </g>
</svg>