<svg width="258" height="38" viewBox="0 0 258 38" fill="none" xmlns="http://www.w3.org/2000/svg">
<path d="M28.8354 21.44C28.8354 29.4151 22.3804 35.8801 14.4177 35.8801C6.45502 35.8801 0 29.4151 0 21.44C0 13.465 6.45502 7 14.4177 7C22.3804 7 28.8354 13.465 28.8354 21.44Z" fill="#0187B3"/>
<path d="M23.912 25.6831C23.912 24.9455 23.652 24.3815 23.1322 23.9909C22.6123 23.5918 21.6765 23.1752 20.3249 22.7413C18.9732 22.2988 17.9031 21.8649 17.1147 21.4396C14.9659 20.2768 13.8915 18.7104 13.8915 16.7406C13.8915 15.7166 14.1774 14.8054 14.7493 14.007C15.3298 13.2 16.1573 12.5708 17.2316 12.1196C18.3147 11.6683 19.5277 11.4427 20.8707 11.4427C22.2224 11.4427 23.4267 11.69 24.4838 12.1846C25.5409 12.6706 26.3597 13.3605 26.9402 14.2543C27.5294 15.1482 27.824 16.1635 27.824 17.3003H23.925C23.925 16.4325 23.652 15.7599 23.1062 15.2827C22.5603 14.7967 21.7935 14.5537 20.8057 14.5537C19.8527 14.5537 19.1118 14.7577 18.5833 15.1655C18.0548 15.5647 17.7905 16.094 17.7905 16.7536C17.7905 17.3697 18.0981 17.886 18.7133 18.3026C19.3371 18.7191 20.2512 19.1096 21.4556 19.4741C23.6737 20.1423 25.2896 20.971 26.3034 21.9603C27.3171 22.9496 27.824 24.1819 27.824 25.6571C27.824 27.2972 27.2045 28.5859 25.9654 29.5231C24.7264 30.4517 23.0585 30.9159 20.9617 30.9159C19.5061 30.9159 18.1804 30.6512 16.9847 30.1219C15.789 29.5839 14.8749 28.8506 14.2424 27.922C13.6186 26.9935 13.3066 25.9174 13.3066 24.6939H17.2187C17.2187 26.7852 18.4663 27.8309 20.9617 27.8309C21.8888 27.8309 22.6123 27.6444 23.1322 27.2712C23.652 26.8894 23.912 26.36 23.912 25.6831Z" fill="#FAFAFA"/>
<path d="M37.1404 26.9095C37.7662 26.9095 38.2747 26.7387 38.6659 26.3971C39.057 26.0554 39.2604 25.6012 39.276 25.0344H42.456C42.4482 25.8885 42.2135 26.6727 41.7519 27.387C41.2904 28.0936 40.6567 28.6449 39.851 29.0408C39.0531 29.4291 38.1691 29.6232 37.1991 29.6232C35.3842 29.6232 33.9527 29.0525 32.9044 27.9111C31.8562 26.762 31.332 25.178 31.332 23.1593V22.938C31.332 20.9969 31.8522 19.4479 32.8927 18.291C33.9331 17.1341 35.3607 16.5556 37.1756 16.5556C38.7636 16.5556 40.0348 17.006 40.9892 17.9066C41.9514 18.7995 42.4403 19.9914 42.456 21.4822H39.276C39.2604 20.8299 39.057 20.302 38.6659 19.8982C38.2747 19.4867 37.7584 19.2809 37.117 19.2809C36.3269 19.2809 35.7284 19.5682 35.3216 20.1428C34.9227 20.7096 34.7232 21.6336 34.7232 22.9147V23.2641C34.7232 24.5608 34.9227 25.4925 35.3216 26.0593C35.7206 26.6261 36.3269 26.9095 37.1404 26.9095Z" fill="black"/>
<path d="M48.692 29.3902H45.2891V16.7885H48.692V29.3902ZM45.0896 13.5275C45.0896 13.0228 45.2578 12.6074 45.5942 12.2813C45.9384 11.9552 46.4038 11.7921 46.9905 11.7921C47.5694 11.7921 48.0309 11.9552 48.3751 12.2813C48.7193 12.6074 48.8914 13.0228 48.8914 13.5275C48.8914 14.0399 48.7154 14.4592 48.3634 14.7853C48.0192 15.1114 47.5616 15.2745 46.9905 15.2745C46.4195 15.2745 45.9579 15.1114 45.6059 14.7853C45.2617 14.4592 45.0896 14.0399 45.0896 13.5275Z" fill="black"/>
<path d="M58.0609 29.6232C56.1991 29.6232 54.6815 29.0564 53.5081 27.9228C52.3425 26.7892 51.7597 25.279 51.7597 23.3922V23.0661C51.7597 21.8005 52.0061 20.6708 52.499 19.6769C52.9918 18.6753 53.688 17.9066 54.5877 17.3709C55.4951 16.8274 56.5277 16.5556 57.6855 16.5556C59.4221 16.5556 60.7872 17.0991 61.7807 18.1861C62.782 19.2732 63.2826 20.8144 63.2826 22.8099V24.1842H55.1978C55.3073 25.0072 55.6359 25.6672 56.1835 26.1641C56.7389 26.661 57.439 26.9095 58.2839 26.9095C59.5903 26.9095 60.6112 26.4398 61.3465 25.5003L63.0127 27.3521C62.5043 28.0664 61.8159 28.6255 60.9475 29.0292C60.0792 29.4252 59.117 29.6232 58.0609 29.6232ZM57.6737 19.2809C57.001 19.2809 56.4534 19.5061 56.0309 19.9564C55.6163 20.4068 55.3504 21.0512 55.233 21.8898H59.9501V21.6219C59.9345 20.8765 59.7311 20.302 59.34 19.8982C58.9488 19.4867 58.3934 19.2809 57.6737 19.2809Z" fill="black"/>
<path d="M69.061 16.7885L69.1666 18.2444C70.074 17.1185 71.2905 16.5556 72.8159 16.5556C74.1614 16.5556 75.1627 16.9477 75.8198 17.7319C76.4769 18.5161 76.8133 19.6886 76.829 21.2492V29.3902H73.4378V21.3308C73.4378 20.6164 73.2814 20.1001 72.9684 19.7817C72.6555 19.4556 72.1353 19.2926 71.4078 19.2926C70.4534 19.2926 69.7377 19.6963 69.2605 20.5038V29.3902H65.8693V16.7885H69.061Z" fill="black"/>
<path d="M84.1914 13.6905V16.7885H86.3622V19.2576H84.1914V25.5468C84.1914 26.0127 84.2814 26.3466 84.4613 26.5485C84.6412 26.7503 84.9854 26.8513 85.4939 26.8513C85.8694 26.8513 86.2019 26.8241 86.4913 26.7697V29.3204C85.8264 29.5222 85.1419 29.6232 84.4379 29.6232C82.0597 29.6232 80.8472 28.4313 80.8003 26.0477V19.2576H78.9463V16.7885H80.8003V13.6905H84.1914Z" fill="black"/>
<path d="M92.5513 29.3902H89.1484V16.7885H92.5513V29.3902ZM88.9489 13.5275C88.9489 13.0228 89.1171 12.6074 89.4535 12.2813C89.7977 11.9552 90.2631 11.7921 90.8498 11.7921C91.4287 11.7921 91.8903 11.9552 92.2345 12.2813C92.5787 12.6074 92.7508 13.0228 92.7508 13.5275C92.7508 14.0399 92.5748 14.4592 92.2227 14.7853C91.8785 15.1114 91.4209 15.2745 90.8498 15.2745C90.2788 15.2745 89.8172 15.1114 89.4652 14.7853C89.121 14.4592 88.9489 14.0399 88.9489 13.5275Z" fill="black"/>
<path d="M96.8981 29.3902V19.2576H95.0089V16.7885H96.8981V16.2062C96.9137 14.6223 97.4026 13.4032 98.3648 12.5492C99.3349 11.6873 100.7 11.2564 102.46 11.2564C103.516 11.2564 104.799 11.4854 106.309 11.9435L105.816 14.7271C105.049 14.5019 104.455 14.3583 104.032 14.2962C103.61 14.2263 103.156 14.1913 102.671 14.1913C101.091 14.1913 100.301 14.8863 100.301 16.2761V16.7885H102.8V19.2576H100.301V29.3902H96.8981ZM107.893 29.3902H104.49V16.7885H107.893V29.3902Z" fill="black"/>
<path d="M116.699 26.9095C117.325 26.9095 117.833 26.7387 118.224 26.3971C118.615 26.0554 118.819 25.6012 118.834 25.0344H122.014C122.006 25.8885 121.772 26.6727 121.31 27.387C120.849 28.0936 120.215 28.6449 119.409 29.0408C118.611 29.4291 117.727 29.6232 116.757 29.6232C114.942 29.6232 113.511 29.0525 112.463 27.9111C111.414 26.762 110.89 25.178 110.89 23.1593V22.938C110.89 20.9969 111.411 19.4479 112.451 18.291C113.491 17.1341 114.919 16.5556 116.734 16.5556C118.322 16.5556 119.593 17.006 120.547 17.9066C121.51 18.7995 121.999 19.9914 122.014 21.4822H118.834C118.819 20.8299 118.615 20.302 118.224 19.8982C117.833 19.4867 117.317 19.2809 116.675 19.2809C115.885 19.2809 115.287 19.5682 114.88 20.1428C114.481 20.7096 114.281 21.6336 114.281 22.9147V23.2641C114.281 24.5608 114.481 25.4925 114.88 26.0593C115.279 26.6261 115.885 26.9095 116.699 26.9095Z" fill="black"/>
<path d="M131.123 22.7715V29.3902H129.74V13.1393H135.318C137.02 13.1393 138.361 13.5708 139.344 14.434C140.333 15.2971 140.828 16.484 140.828 17.9945C140.828 19.5199 140.352 20.6992 139.4 21.5326C138.455 22.3586 137.083 22.7715 135.284 22.7715H131.123ZM131.123 21.6108H135.318C136.66 21.6108 137.683 21.2945 138.388 20.662C139.092 20.0296 139.445 19.1478 139.445 18.0168C139.445 16.8932 139.092 16.0003 138.388 15.3381C137.691 14.6684 136.697 14.3261 135.408 14.3112H131.123V21.6108Z" fill="black"/>
<path d="M152.134 27.8611C151.325 29.0294 150.031 29.6135 148.255 29.6135C146.958 29.6135 145.972 29.2414 145.297 28.4973C144.623 27.7458 144.278 26.6371 144.263 25.1712V17.3136H145.601V25.0038C145.601 27.3031 146.538 28.4527 148.412 28.4527C150.361 28.4527 151.595 27.6528 152.112 26.053V17.3136H153.461V29.3902H152.157L152.134 27.8611Z" fill="black"/>
<path d="M167.455 23.4747C167.455 25.3573 167.035 26.8529 166.196 27.9616C165.356 29.0628 164.228 29.6135 162.811 29.6135C161.117 29.6135 159.835 28.9884 158.965 27.7384L158.909 29.3902H157.649V12.2463H158.988V19.066C159.842 17.7489 161.109 17.0904 162.788 17.0904C164.228 17.0904 165.364 17.6373 166.196 18.7311C167.035 19.8175 167.455 21.3317 167.455 23.2738V23.4747ZM166.106 23.2403C166.106 21.648 165.795 20.4202 165.172 19.5571C164.55 18.6865 163.673 18.2512 162.541 18.2512C161.679 18.2512 160.948 18.4632 160.348 18.8874C159.749 19.3041 159.295 19.9179 158.988 20.729V26.1758C159.662 27.6937 160.854 28.4527 162.564 28.4527C163.673 28.4527 164.539 28.0174 165.161 27.1468C165.791 26.2762 166.106 24.9741 166.106 23.2403Z" fill="black"/>
<path d="M172.633 29.3902H171.284V12.2463H172.633V29.3902Z" fill="black"/>
<path d="M178.497 29.3902H177.147V17.3136H178.497V29.3902ZM176.911 13.8201C176.911 13.5671 176.994 13.355 177.158 13.1839C177.323 13.0053 177.548 12.916 177.833 12.916C178.118 12.916 178.343 13.0053 178.508 13.1839C178.68 13.355 178.767 13.5671 178.767 13.8201C178.767 14.0731 178.68 14.2852 178.508 14.4563C178.343 14.6274 178.118 14.713 177.833 14.713C177.548 14.713 177.323 14.6274 177.158 14.4563C176.994 14.2852 176.911 14.0731 176.911 13.8201Z" fill="black"/>
<path d="M187.352 28.4862C188.289 28.4862 189.072 28.2257 189.702 27.7049C190.339 27.1766 190.684 26.4957 190.736 25.6623H192.03C191.992 26.399 191.76 27.0724 191.332 27.6826C190.905 28.2853 190.335 28.7578 189.623 29.1001C188.918 29.4423 188.161 29.6135 187.352 29.6135C185.755 29.6135 184.488 29.0628 183.551 27.9616C182.621 26.8603 182.156 25.3796 182.156 23.5194V23.1175C182.156 21.927 182.366 20.8741 182.786 19.9589C183.206 19.0436 183.806 18.3367 184.585 17.8382C185.372 17.3397 186.291 17.0904 187.34 17.0904C188.675 17.0904 189.773 17.4848 190.635 18.2735C191.505 19.0622 191.97 20.1002 192.03 21.3875H190.736C190.676 20.4425 190.332 19.6798 189.702 19.0994C189.08 18.519 188.292 18.2289 187.34 18.2289C186.126 18.2289 185.181 18.6641 184.507 19.5347C183.839 20.4053 183.506 21.6256 183.506 23.1957V23.5863C183.506 25.1266 183.839 26.3283 184.507 27.1915C185.181 28.0546 186.13 28.4862 187.352 28.4862Z" fill="black"/>
<path d="M203.1 29.3902C202.965 29.0108 202.879 28.449 202.841 27.7049C202.369 28.315 201.765 28.7875 201.031 29.1224C200.303 29.4498 199.531 29.6135 198.714 29.6135C197.545 29.6135 196.596 29.2898 195.869 28.6424C195.149 27.9951 194.79 27.1766 194.79 26.1869C194.79 25.0113 195.281 24.0811 196.263 23.3966C197.252 22.712 198.628 22.3697 200.39 22.3697H202.83V20.9969C202.83 20.1337 202.56 19.4566 202.02 18.9655C201.488 18.467 200.708 18.2177 199.681 18.2177C198.744 18.2177 197.968 18.4558 197.354 18.932C196.739 19.4082 196.431 19.9812 196.431 20.6509L195.082 20.6397C195.082 19.6798 195.532 18.8502 196.431 18.1507C197.331 17.4438 198.437 17.0904 199.749 17.0904C201.106 17.0904 202.174 17.429 202.954 18.1061C203.741 18.7758 204.146 19.7133 204.168 20.9187V26.6334C204.168 27.8016 204.292 28.6759 204.539 29.2563V29.3902H203.1ZM198.872 28.4304C199.771 28.4304 200.573 28.2146 201.278 27.783C201.99 27.3514 202.508 26.7748 202.83 26.053V23.3966H200.423C199.082 23.4115 198.032 23.657 197.275 24.1332C196.518 24.602 196.139 25.2494 196.139 26.0753C196.139 26.7524 196.39 27.3142 196.892 27.7607C197.402 28.2071 198.062 28.4304 198.872 28.4304Z" fill="black"/>
<path d="M210.549 14.2219V17.3136H213.068V18.4074H210.549V26.4548C210.549 27.1245 210.669 27.623 210.909 27.9504C211.156 28.2778 211.565 28.4415 212.135 28.4415C212.36 28.4415 212.723 28.4043 213.225 28.3299L213.282 29.4237C212.929 29.5502 212.45 29.6135 211.842 29.6135C210.92 29.6135 210.249 29.3493 209.829 28.821C209.41 28.2853 209.2 27.5003 209.2 26.466V18.4074H206.962V17.3136H209.2V14.2219H210.549Z" fill="black"/>
<path d="M218.055 29.3902H216.705V17.3136H218.055V29.3902ZM216.469 13.8201C216.469 13.5671 216.551 13.355 216.716 13.1839C216.881 13.0053 217.106 12.916 217.391 12.916C217.676 12.916 217.901 13.0053 218.066 13.1839C218.238 13.355 218.324 13.5671 218.324 13.8201C218.324 14.0731 218.238 14.2852 218.066 14.4563C217.901 14.6274 217.676 14.713 217.391 14.713C217.106 14.713 216.881 14.6274 216.716 14.4563C216.551 14.2852 216.469 14.0731 216.469 13.8201Z" fill="black"/>
<path d="M221.669 23.1734C221.669 22.0126 221.894 20.9671 222.344 20.037C222.801 19.1069 223.442 18.3851 224.267 17.8717C225.099 17.3508 226.04 17.0904 227.089 17.0904C228.709 17.0904 230.021 17.6559 231.025 18.7869C232.03 19.9105 232.532 21.4024 232.532 23.2626V23.5417C232.532 24.7099 232.303 25.7628 231.846 26.7004C231.396 27.6305 230.759 28.3485 229.934 28.8545C229.11 29.3605 228.169 29.6135 227.112 29.6135C225.5 29.6135 224.188 29.0517 223.176 27.9281C222.171 26.7971 221.669 25.3015 221.669 23.4412V23.1734ZM223.019 23.5417C223.019 24.9852 223.393 26.172 224.143 27.1022C224.9 28.0248 225.89 28.4862 227.112 28.4862C228.326 28.4862 229.308 28.0248 230.058 27.1022C230.815 26.172 231.194 24.948 231.194 23.4301V23.1734C231.194 22.2507 231.021 21.4061 230.677 20.6397C230.332 19.8733 229.848 19.2817 229.226 18.8651C228.604 18.4409 227.892 18.2289 227.089 18.2289C225.89 18.2289 224.912 18.6976 224.154 19.6352C223.397 20.5653 223.019 21.7856 223.019 23.2961V23.5417Z" fill="black"/>
<path d="M237.294 17.3136L237.339 19.3785C237.796 18.6344 238.366 18.0689 239.048 17.6819C239.73 17.2876 240.484 17.0904 241.308 17.0904C242.613 17.0904 243.584 17.455 244.221 18.1842C244.858 18.9134 245.18 20.0072 245.188 21.4657V29.3902H243.85V21.4545C243.842 20.3756 243.61 19.5719 243.152 19.0436C242.703 18.5153 241.979 18.2512 240.982 18.2512C240.15 18.2512 239.412 18.5116 238.767 19.0325C238.13 19.5459 237.657 20.2416 237.35 21.1197V29.3902H236.012V17.3136H237.294Z" fill="black"/>
<path d="M256.652 26.3209C256.652 25.6586 256.382 25.1266 255.842 24.7248C255.31 24.323 254.504 24.0105 253.424 23.7872C252.345 23.5566 251.505 23.2961 250.905 23.0059C250.313 22.7083 249.871 22.3474 249.578 21.9233C249.294 21.4991 249.151 20.9857 249.151 20.383C249.151 19.4306 249.552 18.6455 250.354 18.0279C251.157 17.4029 252.184 17.0904 253.436 17.0904C254.792 17.0904 255.88 17.4252 256.697 18.0949C257.521 18.7572 257.934 19.624 257.934 20.6955H256.584C256.584 19.9886 256.284 19.4008 255.685 18.932C255.092 18.4632 254.343 18.2289 253.436 18.2289C252.551 18.2289 251.839 18.426 251.299 18.8204C250.767 19.2073 250.501 19.7133 250.501 20.3384C250.501 20.9411 250.722 21.4099 251.164 21.7447C251.614 22.0721 252.427 22.3735 253.604 22.6488C254.789 22.9241 255.673 23.218 256.258 23.5305C256.85 23.843 257.289 24.2188 257.574 24.6578C257.859 25.0968 258.001 25.6289 258.001 26.2539C258.001 27.2733 257.585 28.0881 256.753 28.6982C255.928 29.3084 254.849 29.6135 253.514 29.6135C252.097 29.6135 250.947 29.2749 250.062 28.5978C249.185 27.9132 248.746 27.0501 248.746 26.0083H250.096C250.148 26.7896 250.478 27.3998 251.085 27.8388C251.7 28.2704 252.51 28.4862 253.514 28.4862C254.451 28.4862 255.209 28.2815 255.786 27.8723C256.363 27.463 256.652 26.9459 256.652 26.3209Z" fill="black"/>
</svg>
