<?xml version="1.0" encoding="UTF-8"?>
<svg width="24px" height="24px" viewBox="0 0 24 24" version="1.1" xmlns="http://www.w3.org/2000/svg" xmlns:xlink="http://www.w3.org/1999/xlink">
    <!-- Generator: Sketch 52.6 (67491) - http://www.bohemiancoding.com/sketch -->
    <title>Desktop</title>
    <desc>Created with Sketch.</desc>
    <g id="Desktop" stroke="none" stroke-width="1" fill="none" fill-rule="evenodd">
        <g id="facebook" transform="translate(8.000000, 5.000000)" fill="#6F6F6F">
            <path d="M5.426204,13.8054933 L2.82583467,13.8054933 L2.82583467,7.54436667 L0.772916667,7.54436667 L0.772916667,5.230484 L2.82583467,5.230484 L2.82583467,3.32492533 C2.82583467,2.23603333 3.09956267,1.555484 3.64700933,1.01103333 C4.194456,0.466591067 5.15248533,0.194368533 6.11051467,0.194368533 C6.93168,0.194368533 7.47912667,0.194368533 8.02657333,0.330479333 L8.02657333,2.50825867 L6.65796133,2.50825867 C6.24737867,2.50825867 5.83678667,2.64436667 5.699932,2.780484 C5.563068,2.916592 5.426204,3.18881733 5.426204,3.59715067 L5.426204,5.09436667 L7.88970933,5.09436667 L7.47912667,7.54436667 L5.426204,7.54436667 L5.426204,13.8054933 Z" id="Path"></path>
        </g>
    </g>
</svg>