<?xml version="1.0" encoding="UTF-8"?>
<svg width="24px" height="24px" viewBox="0 0 24 24" version="1.1" xmlns="http://www.w3.org/2000/svg" xmlns:xlink="http://www.w3.org/1999/xlink">
    <!-- Generator: Sketch 52.6 (67491) - http://www.bohemiancoding.com/sketch -->
    <title>Desktop</title>
    <desc>Created with Sketch.</desc>
    <g id="Desktop" stroke="none" stroke-width="1" fill="none" fill-rule="evenodd">
        <g id="Vector-(4)" transform="translate(7.000000, 5.000000)" fill="#FFFFFF" fill-rule="nonzero">
            <path d="M6.15477333,5.16161333 L9.5837,5.16161333 L6.15477333,1.66161333 L6.15477333,5.16161333 Z M1.79070889,0.707071556 L6.77820889,0.707071556 L10.5188222,4.52525111 L10.5188222,12.1616444 C10.5188222,12.4992 10.3874556,12.8229111 10.1536556,13.0615333 C9.91977778,13.3002333 9.60267778,13.4343222 9.27196667,13.4343222 L1.79070889,13.4343222 C1.46002111,13.4343222 1.14287444,13.3002333 0.909035556,13.0615333 C0.675203667,12.8229111 0.543837,12.4992 0.543837,12.1616444 L0.543837,1.97980222 C0.543837,1.64224667 0.675203667,1.31852778 0.909035556,1.07984333 C1.14287444,0.841158889 1.46002111,0.707071556 1.79070889,0.707071556 Z M4.86426111,7.35070778 C5.08130778,7.87196667 5.40677667,8.33878889 5.81812,8.71888889 L6.07372889,8.92251111 C5.36331444,9.05418889 4.66627778,9.25228889 3.99144667,9.51432222 L3.92287,9.51432222 L4.23458778,8.87794444 C4.48586444,8.38856667 4.69448,7.87748889 4.85802333,7.35070778 L4.86426111,7.35070778 Z M8.89793333,9.77526667 C9.00495556,9.6621 9.0671,9.51245556 9.07246667,9.35526667 C9.08988889,9.23315556 9.06328889,9.10878889 8.99764444,9.00526667 C8.81688889,8.70613333 8.37417778,8.56613333 7.57620889,8.56613333 L6.77820889,8.6107 L6.23581778,8.24164444 C5.77053556,7.79605556 5.42678889,7.23466333 5.23831778,6.61252667 L5.23831778,6.52343222 C5.44405556,5.67707 5.63731778,4.65252667 5.23831778,4.23252667 C5.18798778,4.18264 5.12845667,4.14345556 5.06317778,4.11723667 C4.99789111,4.09101778 4.92816333,4.07829333 4.85802333,4.07980222 L4.72087,4.07980222 C4.60074222,4.10316667 4.49000222,4.16207556 4.40242444,4.24920222 C4.31485444,4.33632889 4.25432,4.44782333 4.22835,4.56980222 C4.04075,5.25915444 4.08913556,5.99321333 4.36551111,6.65070778 C4.19789222,7.29209444 3.97249222,7.9163 3.69219667,8.51526667 L3.06876111,9.6607 L2.51390222,9.97251111 C1.97207889,10.2573333 1.55406222,10.7384667 1.34183778,11.3216444 C1.30777111,11.4334889 1.30777111,11.5533444 1.34183778,11.6652667 L1.34183778,11.6970778 L1.64108778,11.8943222 L1.91540222,11.9643222 C2.42038222,11.9643222 2.99394667,11.3279444 3.78570889,10.0107 L3.89792667,9.96613333 C4.71208111,9.72502222 5.54725111,9.56518889 6.39168444,9.48888889 C6.97577222,9.7783 7.61306,9.93875556 8.26202222,9.95983333 C8.36437778,9.97025556 8.46774444,9.95866667 8.56551111,9.92576667 C8.6632,9.89286667 8.75311111,9.83943333 8.82933333,9.76888889 L8.89793333,9.77526667 Z M8.6485,9.32345556 L8.70465556,9.39345556 C8.70465556,9.45707778 8.70465556,9.46345556 8.6485,9.47613333 L8.53004444,9.47613333 C8.11898889,9.44362222 7.71733667,9.33356667 7.34554333,9.15164444 C7.36137111,9.12854444 7.38314111,9.11042222 7.40844222,9.09914444 C7.43375111,9.08794444 7.46160333,9.08405556 7.48892667,9.08794444 C8.36173333,9.08794444 8.61108889,9.24707778 8.67346667,9.3107 L8.6485,9.32345556 Z M2.9316,10.2525111 C2.52637,11.0098333 2.15854333,11.4298333 1.87799111,11.5252667 C2.02329556,11.1003667 2.28513444,10.7271111 2.63235,10.4498333 L2.9316,10.2525111 Z M4.80191444,5.85525111 C4.66360222,5.42469667 4.65276,4.96206667 4.77074111,4.52525111 L4.81438222,4.44888889 L4.90790222,4.52525111 C4.96358333,4.63183778 4.99728444,4.74893222 5.00693667,4.86932444 C5.01658889,4.98971667 5.00197444,5.11084778 4.96401111,5.22525111 L4.96401111,5.32707 L4.86426111,5.84888889 L4.80191444,5.85525111 Z" id="Shape"></path>
        </g>
    </g>
</svg>