<?xml version="1.0" encoding="UTF-8"?>
<svg width="24px" height="24px" viewBox="0 0 24 24" version="1.1" xmlns="http://www.w3.org/2000/svg" xmlns:xlink="http://www.w3.org/1999/xlink">
    <!-- Generator: Sketch 52.6 (67491) - http://www.bohemiancoding.com/sketch -->
    <title>Desktop</title>
    <desc>Created with Sketch.</desc>
    <g id="Desktop" stroke="none" stroke-width="1" fill="none" fill-rule="evenodd">
        <g id="Vector-(3)" transform="translate(6.000000, 6.000000)" fill="#757575" fill-rule="nonzero">
            <path d="M2.18238,9.81838 C1.37628,9.01228 1.37628,7.70177 2.18238,6.89567 L4.068,5.01005 L3.17233,4.11438 L1.28671,6 C-0.0143665,7.30108 -0.0143665,9.41297 1.28671,10.714 C2.58779,12.0151 4.69968,12.0151 6.00075,10.714 L7.88637,8.82843 L6.9907,7.93276 L5.10509,9.81838 C4.29898,10.6245 2.98848,10.6245 2.18238,9.81838 Z M4.58654,8.35703 L8.35778,4.58579 L7.41497,3.64298 L3.64373,7.41422 L4.58654,8.35703 Z M6.00075,1.28596 L4.11514,3.17158 L5.01081,4.06724 L6.89642,2.18163 C7.70252,1.37552 9.01303,1.37552 9.81913,2.18163 C10.6252,2.98773 10.6252,4.29823 9.81913,5.10433 L7.93351,6.98995 L8.82918,7.88562 L10.7148,6 C12.0159,4.69893 12.0159,2.58703 10.7148,1.28596 C9.41372,-0.0151182 7.30183,-0.0151184 6.00075,1.28596 Z" id="Shape"></path>
        </g>
    </g>
</svg>