<?xml version="1.0" encoding="UTF-8"?>
<svg width="24px" height="24px" viewBox="0 0 24 24" version="1.1" xmlns="http://www.w3.org/2000/svg" xmlns:xlink="http://www.w3.org/1999/xlink">
    <!-- Generator: Sketch 52.6 (67491) - http://www.bohemiancoding.com/sketch -->
    <title>Desktop</title>
    <desc>Created with Sketch.</desc>
    <g id="Desktop" stroke="none" stroke-width="1" fill="none" fill-rule="evenodd">
        <g id="Vector-(1)" transform="translate(5.000000, 7.000000)" fill="#6F6F6F" fill-rule="nonzero">
            <path d="M12.1846667,1.55555556 L6.99949444,1.55555556 L5.70319556,0.259258222 L1.81430667,0.259258222 C1.09810556,0.259258222 0.524493667,0.839354444 0.524493667,1.55555556 L0.518012444,9.33333333 C0.518012444,10.0495111 1.09810556,10.6296556 1.81430667,10.6296556 L12.1846667,10.6296556 C12.9008444,10.6296556 13.4809889,10.0495111 13.4809889,9.33333333 L13.4809889,2.85185444 C13.4809889,2.13564556 12.9008444,1.55555556 12.1846667,1.55555556 Z M11.5365444,6.74074333 L9.5921,6.74074333 L9.5921,8.68521111 L8.29577778,8.68521111 L8.29577778,6.74074333 L6.35134889,6.74074333 L6.35134889,5.44444444 L8.29577778,5.44444444 L8.29577778,3.5 L9.5921,3.5 L9.5921,5.44444444 L11.5365444,5.44444444 L11.5365444,6.74074333 Z" id="Shape"></path>
        </g>
    </g>
</svg>