<svg width="18" height="8" viewBox="0 0 18 8" fill="none" xmlns="http://www.w3.org/2000/svg">
<path d="M16.6608 4.88181C16.7952 4.73579 16.8305 4.52408 16.7508 4.34233C16.671 4.16058 16.4914 4.04319 16.2929 4.04319L0.512419 4.04319C0.507189 4.03635 0.5 4.02221 0.5 4C0.5 3.97779 0.507189 3.96365 0.512419 3.95681L16.2929 3.95681C16.4914 3.95681 16.671 3.83942 16.7508 3.65767C16.8305 3.47592 16.7952 3.26421 16.6608 3.11819L14.3323 0.58865C14.3267 0.58251 14.318 0.567502 14.318 0.543186C14.318 0.532931 14.3196 0.524331 14.3218 0.517355L17.4857 3.95454C17.4913 3.96068 17.5 3.97568 17.5 4C17.5 4.02432 17.4913 4.03932 17.4857 4.04546L14.3218 7.48265C14.3196 7.47567 14.318 7.46707 14.318 7.45681C14.318 7.4325 14.3267 7.41749 14.3323 7.41135L16.6608 4.88181Z" fill="#2F80ED" stroke="#E0E0E0" stroke-linejoin="round"/>
</svg>
