<?xml version="1.0" encoding="UTF-8"?>
<svg width="24px" height="24px" viewBox="0 0 24 24" version="1.1" xmlns="http://www.w3.org/2000/svg" xmlns:xlink="http://www.w3.org/1999/xlink">
    <!-- Generator: Sketch 52.6 (67491) - http://www.bohemiancoding.com/sketch -->
    <title>Desktop</title>
    <desc>Created with Sketch.</desc>
    <g id="Desktop" stroke="none" stroke-width="1" fill="none" fill-rule="evenodd">
        <g id="linkedin" transform="translate(5.000000, 5.000000)" fill="#6F6F6F" fill-rule="nonzero">
            <path d="M4.16360933,1.820476 C4.16360933,2.22699867 4.025448,2.63353067 3.61095467,3.04005333 C3.19646133,3.446576 2.92012933,3.44658533 2.505636,3.44658533 C2.09114267,3.44658533 1.67664933,3.31107467 1.40031733,3.04005333 C1.12398533,2.769032 0.847656133,2.22699867 0.847656133,1.820476 C0.847656133,1.413944 0.985824,1.00742133 1.40031733,0.600894933 C1.81481067,0.194368533 2.09114267,0.194368533 2.505636,0.194368533 C2.92012933,0.194368533 3.33462267,0.329877333 3.749116,0.736403733 C4.16360933,1.142932 4.16360933,1.413944 4.16360933,1.820476 Z M4.16360933,4.80167333 L4.16360933,13.3387333 C4.16360933,13.4742533 4.16360933,13.4742533 4.025448,13.6097733 C3.88728667,13.7452933 3.88728667,13.7452933 3.749116,13.7452933 L1.26214667,13.7452933 C1.12398533,13.7452933 1.12398533,13.7452933 0.985824,13.6097733 C0.847656133,13.4742533 0.985824,13.4742533 0.985824,13.3387333 L0.985824,4.80167333 C0.985824,4.66616267 0.985824,4.66616267 1.12398533,4.530652 C1.26214667,4.39514133 1.26214667,4.39514133 1.40031733,4.39514133 L3.88728667,4.39514133 C4.025448,4.39514133 4.025448,4.39514133 4.16360933,4.530652 C4.30178,4.66616267 4.16360933,4.66616267 4.16360933,4.80167333 Z M11.2099867,7.10531733 C11.0718533,6.96980667 10.65736,6.83430533 10.2428667,6.83430533 C9.69024,6.83430533 9.27570933,6.969816 8.99938667,7.240828 C8.72305467,7.51184933 8.58489333,8.18939333 8.58489333,8.73142667 L8.58489333,13.3387333 C8.58489333,13.4742533 8.58489333,13.4742533 8.44672267,13.6097733 C8.30856133,13.7452933 8.30856133,13.7452933 8.30856133,13.7452933 L5.821592,13.7452933 C5.68343067,13.7452933 5.68343067,13.7452933 5.54526,13.6097733 C5.40709867,13.4742533 5.40709867,13.4742533 5.40709867,13.3387333 L5.40709867,4.80167333 C5.40709867,4.66616267 5.40709867,4.66616267 5.54526,4.530652 C5.68343067,4.39514133 5.68343067,4.39514133 5.821592,4.39514133 L8.17039067,4.39514133 C8.30856133,4.39514133 8.30856133,4.39514133 8.44672267,4.39514133 C8.58489333,4.39514133 8.58489333,4.530652 8.58489333,4.530652 C8.58489333,4.66616267 8.58489333,4.66616267 8.58489333,4.66616267 C8.58489333,4.66616267 8.58489333,4.80167333 8.58489333,4.93717467 C9.137548,4.530652 9.96650667,4.25963067 11.0718533,4.25963067 C12.1772,4.25963067 13.14432,4.530652 13.6969467,5.07268533 C14.2496667,5.61471867 14.66416,6.42777333 14.66416,7.64736 L14.66416,13.4742533 C14.66416,13.6097733 14.66416,13.6097733 14.5259333,13.7452933 C14.3878,13.88072 14.3878,13.7452933 14.3878,13.7452933 L11.7627067,13.7452933 C11.62448,13.7452933 11.62448,13.7452933 11.4863467,13.6097733 C11.3482133,13.4742533 11.4863467,13.4742533 11.4863467,13.3387333 L11.4863467,8.18939333 C11.4863467,7.64736 11.3482133,7.37633867 11.2099867,7.10531733 Z" id="Shape"></path>
        </g>
    </g>
</svg>