<svg width="126" height="39" viewBox="0 0 126 39" fill="none" xmlns="http://www.w3.org/2000/svg">
<path d="M25.3591 12.8017C25.3591 19.8718 19.6822 25.6033 12.6795 25.6033C5.67682 25.6033 0 19.8718 0 12.8017C0 5.7315 5.67682 0 12.6795 0C19.6822 0 25.3591 5.7315 25.3591 12.8017Z" fill="#0187B3"/>
<path d="M21.0299 16.5632C21.0299 15.9093 20.8013 15.4092 20.3441 15.063C19.8869 14.7091 19.064 14.3398 17.8753 13.9552C16.6865 13.5628 15.7455 13.1781 15.0521 12.8012C13.1623 11.7703 12.2175 10.3816 12.2175 8.63524C12.2175 7.72743 12.4689 6.91964 12.9718 6.21185C13.4824 5.49637 14.2101 4.93861 15.1549 4.53856C16.1074 4.1385 17.1742 3.93848 18.3553 3.93848C19.544 3.93848 20.6032 4.15774 21.5328 4.59625C22.4624 5.02708 23.1825 5.6387 23.6931 6.43111C24.2112 7.22352 24.4703 8.12364 24.4703 9.13146H21.0413C21.0413 8.36213 20.8013 7.7659 20.3212 7.34277C19.8412 6.91194 19.1668 6.69653 18.2982 6.69653C17.46 6.69653 16.8085 6.87732 16.3437 7.23891C15.8788 7.5928 15.6464 8.06209 15.6464 8.64678C15.6464 9.19301 15.9169 9.65076 16.4579 10.02C17.0066 10.3893 17.8105 10.7355 18.8697 11.0586C20.8203 11.651 22.2415 12.3857 23.133 13.2628C24.0245 14.1398 24.4703 15.2323 24.4703 16.5401C24.4703 17.9942 23.9255 19.1366 22.8358 19.9675C21.7462 20.7907 20.2793 21.2023 18.4353 21.2023C17.1552 21.2023 15.9893 20.9676 14.9378 20.4983C13.8862 20.0213 13.0823 19.3713 12.5261 18.5481C11.9774 17.7249 11.7031 16.7709 11.7031 15.6862H15.1435C15.1435 17.5403 16.2408 18.4673 18.4353 18.4673C19.2506 18.4673 19.8869 18.3019 20.3441 17.9711C20.8013 17.6326 21.0299 17.1633 21.0299 16.5632Z" fill="#FAFAFA"/>
<path d="M32.6628 17.6501C33.2132 17.6501 33.6604 17.4986 34.0044 17.1958C34.3484 16.8929 34.5272 16.4902 34.541 15.9877H37.3376C37.3307 16.7449 37.1243 17.4401 36.7184 18.0734C36.3125 18.6998 35.7552 19.1885 35.0466 19.5396C34.3449 19.8838 33.5675 20.0558 32.7144 20.0558C31.1184 20.0558 29.8594 19.5499 28.9375 18.538C28.0156 17.5193 27.5547 16.115 27.5547 14.3253V14.1292C27.5547 12.4083 28.0122 11.035 28.9272 10.0094C29.8422 8.98375 31.0977 8.47093 32.6938 8.47093C34.0904 8.47093 35.2083 8.87017 36.0476 9.66866C36.8938 10.4603 37.3238 11.5169 37.3376 12.8385H34.541C34.5272 12.2603 34.3484 11.7922 34.0044 11.4343C33.6604 11.0694 33.2063 10.887 32.6422 10.887C31.9474 10.887 31.4211 11.1417 31.0633 11.6511C30.7125 12.1536 30.537 12.9727 30.537 14.1085V14.4183C30.537 15.5678 30.7125 16.3938 31.0633 16.8963C31.4142 17.3988 31.9474 17.6501 32.6628 17.6501Z" fill="black"/>
<path d="M42.8218 19.8493H39.8291V8.67744H42.8218V19.8493ZM39.6537 5.78637C39.6537 5.33894 39.8016 4.97068 40.0974 4.68157C40.4001 4.39246 40.8095 4.24791 41.3254 4.24791C41.8345 4.24791 42.2404 4.39246 42.5431 4.68157C42.8458 4.97068 42.9972 5.33894 42.9972 5.78637C42.9972 6.24068 42.8424 6.61239 42.5328 6.9015C42.2301 7.1906 41.8276 7.33516 41.3254 7.33516C40.8232 7.33516 40.4173 7.1906 40.1077 6.9015C39.805 6.61239 39.6537 6.24068 39.6537 5.78637Z" fill="black"/>
<path d="M51.0612 20.0558C49.4239 20.0558 48.0892 19.5534 47.0573 18.5484C46.0322 17.5434 45.5197 16.2045 45.5197 14.5318V14.2427C45.5197 13.1207 45.7364 12.1192 46.1698 11.2381C46.6032 10.3501 47.2155 9.66866 48.0067 9.1937C48.8047 8.71185 49.7128 8.47093 50.731 8.47093C52.2583 8.47093 53.4588 8.95278 54.3325 9.91646C55.2131 10.8802 55.6534 12.2465 55.6534 14.0156V15.234H48.5433C48.6396 15.9636 48.9286 16.5487 49.4101 16.9893C49.8986 17.4298 50.5143 17.6501 51.2573 17.6501C52.4062 17.6501 53.304 17.2336 53.9507 16.4007L55.4161 18.0424C54.9689 18.6757 54.3635 19.1713 53.5998 19.5293C52.8362 19.8803 51.99 20.0558 51.0612 20.0558ZM50.7207 10.887C50.1291 10.887 49.6475 11.0867 49.276 11.4859C48.9114 11.8851 48.6774 12.4565 48.5743 13.1999H52.7227V12.9624C52.7089 12.3016 52.5301 11.7922 52.1861 11.4343C51.8421 11.0694 51.3536 10.887 50.7207 10.887Z" fill="black"/>
<path d="M60.7352 8.67744L60.828 9.96809C61.6261 8.96999 62.6959 8.47093 64.0374 8.47093C65.2207 8.47093 66.1013 8.81855 66.6792 9.51378C67.2571 10.209 67.5529 11.2484 67.5667 12.632V19.8493H64.5843V12.7043C64.5843 12.071 64.4467 11.6132 64.1715 11.331C63.8964 11.0419 63.4389 10.8974 62.7991 10.8974C61.9597 10.8974 61.3302 11.2553 60.9106 11.9712V19.8493H57.9283V8.67744H60.7352Z" fill="black"/>
<path d="M74.0415 5.93092V8.67744H75.9506V10.8664H74.0415V16.442C74.0415 16.855 74.1206 17.151 74.2789 17.33C74.4371 17.509 74.7398 17.5984 75.187 17.5984C75.5172 17.5984 75.8096 17.5743 76.0641 17.5262V19.7874C75.4794 19.9664 74.8774 20.0558 74.2582 20.0558C72.1668 20.0558 71.1005 18.9992 71.0592 16.886V10.8664H69.4287V8.67744H71.0592V5.93092H74.0415Z" fill="black"/>
<path d="M81.3935 19.8493H78.4009V8.67744H81.3935V19.8493ZM78.2255 5.78637C78.2255 5.33894 78.3734 4.97068 78.6692 4.68157C78.9719 4.39246 79.3812 4.24791 79.8972 4.24791C80.4063 4.24791 80.8122 4.39246 81.1149 4.68157C81.4176 4.97068 81.569 5.33894 81.569 5.78637C81.569 6.24068 81.4142 6.61239 81.1046 6.9015C80.8019 7.1906 80.3994 7.33516 79.8972 7.33516C79.395 7.33516 78.9891 7.1906 78.6795 6.9015C78.3768 6.61239 78.2255 6.24068 78.2255 5.78637Z" fill="black"/>
<path d="M85.2163 19.8493V10.8664H83.5549V8.67744H85.2163V8.16117C85.23 6.75694 85.66 5.67623 86.5062 4.91905C87.3593 4.15498 88.5598 3.77295 90.1077 3.77295C91.0365 3.77295 92.1647 3.97601 93.4925 4.38214L93.0591 6.84987C92.3849 6.65025 91.862 6.5229 91.4905 6.46784C91.119 6.40588 90.72 6.37491 90.2935 6.37491C88.9038 6.37491 88.2089 6.99098 88.2089 8.22313V8.67744H90.407V10.8664H88.2089V19.8493H85.2163ZM94.8857 19.8493H91.893V8.67744H94.8857V19.8493Z" fill="black"/>
<path d="M102.63 17.6501C103.18 17.6501 103.627 17.4986 103.971 17.1958C104.315 16.8929 104.494 16.4902 104.508 15.9877H107.305C107.298 16.7449 107.091 17.4401 106.685 18.0734C106.279 18.6998 105.722 19.1885 105.014 19.5396C104.312 19.8838 103.534 20.0558 102.681 20.0558C101.085 20.0558 99.8263 19.5499 98.9045 18.538C97.9826 17.5193 97.5217 16.115 97.5217 14.3253V14.1292C97.5217 12.4083 97.9792 11.035 98.8942 10.0094C99.8092 8.98375 101.065 8.47093 102.661 8.47093C104.057 8.47093 105.175 8.87017 106.015 9.66866C106.861 10.4603 107.291 11.5169 107.305 12.8385H104.508C104.494 12.2603 104.315 11.7922 103.971 11.4343C103.627 11.0694 103.173 10.887 102.609 10.887C101.914 10.887 101.388 11.1417 101.03 11.6511C100.679 12.1536 100.504 12.9727 100.504 14.1085V14.4183C100.504 15.5678 100.679 16.3938 101.03 16.8963C101.381 17.3988 101.914 17.6501 102.63 17.6501Z" fill="black"/>
<path d="M29.0568 33.8785V38.8329H28V26.6684H32.2617C33.5619 26.6684 34.5873 26.9914 35.3376 27.6375C36.0938 28.2836 36.4718 29.172 36.4718 30.3027C36.4718 31.4445 36.1081 32.3273 35.3806 32.9512C34.6589 33.5694 33.6106 33.8785 32.2359 33.8785H29.0568ZM29.0568 33.0096H32.2617C33.287 33.0096 34.0689 32.7729 34.6073 32.2995C35.1458 31.826 35.415 31.166 35.415 30.3194C35.415 29.4784 35.1458 28.81 34.6073 28.3143C34.0746 27.813 33.3156 27.5568 32.3304 27.5456H29.0568V33.0096Z" fill="black"/>
<path d="M45.1106 37.6883C44.492 38.5628 43.5039 39 42.1464 39C41.1554 39 40.4022 38.7215 39.8866 38.1645C39.3711 37.602 39.1076 36.7721 39.0962 35.6748V29.7931H40.1186V35.5495C40.1186 37.2706 40.8346 38.1311 42.2667 38.1311C43.7559 38.1311 44.6982 37.5323 45.0934 36.3348V29.7931H46.1245V38.8329H45.1278L45.1106 37.6883Z" fill="black"/>
<path d="M56.8168 34.4049C56.8168 35.8141 56.4961 36.9336 55.8545 37.7635C55.213 38.5878 54.3509 39 53.2683 39C51.9738 39 50.9943 38.5321 50.3298 37.5964L50.2869 38.8329H49.3245V26H50.347V31.1048C51 30.1189 51.968 29.626 53.2511 29.626C54.3509 29.626 55.2187 30.0353 55.8545 30.8541C56.4961 31.6673 56.8168 32.8008 56.8168 34.2545V34.4049ZM55.7858 34.2294C55.7858 33.0375 55.5481 32.1185 55.0726 31.4724C54.5972 30.8207 53.927 30.4949 53.0621 30.4949C52.4034 30.4949 51.8449 30.6536 51.3866 30.9711C50.9284 31.283 50.5818 31.7425 50.347 32.3496V36.4267C50.8625 37.563 51.7733 38.1311 53.0793 38.1311C53.927 38.1311 54.5886 37.8053 55.0641 37.1536C55.5452 36.5019 55.7858 35.5272 55.7858 34.2294Z" fill="black"/>
<path d="M60.773 38.8329H59.7419V26H60.773V38.8329Z" fill="black"/>
<path d="M65.2532 38.8329H64.2222V29.7931H65.2532V38.8329ZM64.0417 27.178C64.0417 26.9886 64.1048 26.8299 64.2308 26.7018C64.3568 26.5681 64.5286 26.5013 64.7463 26.5013C64.964 26.5013 65.1358 26.5681 65.2618 26.7018C65.3936 26.8299 65.4594 26.9886 65.4594 27.178C65.4594 27.3674 65.3936 27.5261 65.2618 27.6542C65.1358 27.7823 64.964 27.8464 64.7463 27.8464C64.5286 27.8464 64.3568 27.7823 64.2308 27.6542C64.1048 27.5261 64.0417 27.3674 64.0417 27.178Z" fill="black"/>
<path d="M72.019 38.1562C72.735 38.1562 73.3336 37.9612 73.8147 37.5713C74.3016 37.1759 74.5651 36.6662 74.6052 36.0424H75.5933C75.5647 36.5938 75.3871 37.0979 75.0606 37.5546C74.7341 38.0058 74.2988 38.3595 73.7546 38.6157C73.2162 38.8719 72.6376 39 72.019 39C70.7989 39 69.8309 38.5878 69.1149 37.7635C68.4046 36.9392 68.0494 35.8308 68.0494 34.4383V34.1375C68.0494 33.2464 68.2098 32.4582 68.5306 31.7731C68.8514 31.088 69.3096 30.5589 69.9053 30.1857C70.5068 29.8126 71.2085 29.626 72.0104 29.626C73.03 29.626 73.8692 29.9212 74.5279 30.5116C75.1923 31.102 75.5475 31.879 75.5933 32.8425H74.6052C74.5594 32.1352 74.2959 31.5643 73.8147 31.1298C73.3393 30.6954 72.7379 30.4781 72.0104 30.4781C71.0825 30.4781 70.3607 30.804 69.8452 31.4557C69.3354 32.1073 69.0805 33.0208 69.0805 34.196V34.4884C69.0805 35.6414 69.3354 36.5409 69.8452 37.187C70.3607 37.8331 71.0853 38.1562 72.019 38.1562Z" fill="black"/>
<path d="M84.0517 38.8329C83.9486 38.5488 83.8827 38.1283 83.8541 37.5713C83.4932 38.0281 83.0321 38.3817 82.4708 38.6324C81.9151 38.8775 81.3251 39 80.7008 39C79.8072 39 79.0826 38.7577 78.527 38.2731C77.9771 37.7886 77.7021 37.1759 77.7021 36.4351C77.7021 35.5551 78.0773 34.8588 78.8277 34.3464C79.5838 33.834 80.6349 33.5778 81.981 33.5778H83.8455V32.5501C83.8455 31.904 83.6393 31.3972 83.2269 31.0296C82.8202 30.6564 82.2244 30.4698 81.4397 30.4698C80.7237 30.4698 80.1308 30.648 79.6611 31.0045C79.1914 31.361 78.9566 31.7898 78.9566 32.2911L77.9255 32.2828C77.9255 31.5643 78.2692 30.9432 78.9566 30.4197C79.644 29.8905 80.4888 29.626 81.4913 29.626C82.528 29.626 83.3443 29.8794 83.94 30.3862C84.5415 30.8875 84.8508 31.5893 84.868 32.4916V36.7693C84.868 37.6437 84.9625 38.2982 85.1515 38.7326V38.8329H84.0517ZM80.8211 38.1144C81.5084 38.1144 82.1213 37.9529 82.6598 37.6298C83.204 37.3068 83.5992 36.8751 83.8455 36.3348V34.3464H82.0068C80.9815 34.3575 80.1795 34.5413 79.601 34.8978C79.0225 35.2487 78.7332 35.7333 78.7332 36.3515C78.7332 36.8584 78.9251 37.2789 79.3089 37.6131C79.6984 37.9473 80.2024 38.1144 80.8211 38.1144Z" fill="black"/>
<path d="M89.7434 27.4788V29.7931H91.6681V30.6118H89.7434V36.6356C89.7434 37.1369 89.8351 37.5101 90.0184 37.7551C90.2074 38.0002 90.5196 38.1227 90.9549 38.1227C91.1268 38.1227 91.4046 38.0949 91.7884 38.0392L91.8313 38.858C91.5621 38.9527 91.1955 39 90.7315 39C90.027 39 89.5143 38.8023 89.1936 38.4068C88.8728 38.0058 88.7124 37.4182 88.7124 36.644V30.6118H87.0026V29.7931H88.7124V27.4788H89.7434Z" fill="black"/>
<path d="M95.4782 38.8329H94.4471V29.7931H95.4782V38.8329ZM94.2667 27.178C94.2667 26.9886 94.3297 26.8299 94.4557 26.7018C94.5817 26.5681 94.7535 26.5013 94.9712 26.5013C95.1889 26.5013 95.3607 26.5681 95.4867 26.7018C95.6185 26.8299 95.6844 26.9886 95.6844 27.178C95.6844 27.3674 95.6185 27.5261 95.4867 27.6542C95.3607 27.7823 95.1889 27.8464 94.9712 27.8464C94.7535 27.8464 94.5817 27.7823 94.4557 27.6542C94.3297 27.5261 94.2667 27.3674 94.2667 27.178Z" fill="black"/>
<path d="M98.24 34.1793C98.24 33.3104 98.4118 32.5278 98.7555 31.8316C99.1049 31.1354 99.5947 30.5951 100.225 30.2108C100.861 29.8209 101.579 29.626 102.381 29.626C103.619 29.626 104.621 30.0493 105.389 30.8959C106.156 31.7369 106.54 32.8537 106.54 34.2461V34.455C106.54 35.3295 106.365 36.1176 106.016 36.8194C105.672 37.5156 105.185 38.0531 104.555 38.4319C103.925 38.8106 103.206 39 102.399 39C101.167 39 100.165 38.5795 99.3913 37.7384C98.6238 36.8918 98.24 35.7723 98.24 34.3798V34.1793ZM99.271 34.455C99.271 35.5356 99.5574 36.4239 100.13 37.1202C100.709 37.8108 101.465 38.1562 102.399 38.1562C103.326 38.1562 104.077 37.8108 104.65 37.1202C105.228 36.4239 105.517 35.5077 105.517 34.3715V34.1793C105.517 33.4886 105.386 32.8565 105.122 32.2828C104.859 31.7091 104.489 31.2663 104.014 30.9544C103.538 30.6369 102.994 30.4781 102.381 30.4781C101.465 30.4781 100.717 30.829 100.139 31.5308C99.5603 32.2271 99.271 33.1405 99.271 34.2712V34.455Z" fill="black"/>
<path d="M110.178 29.7931L110.213 31.3387C110.562 30.7817 110.997 30.3584 111.519 30.0688C112.04 29.7736 112.615 29.626 113.246 29.626C114.242 29.626 114.984 29.8989 115.471 30.4447C115.958 30.9906 116.204 31.8093 116.21 32.901V38.8329H115.187V32.8927C115.182 32.085 115.004 31.4835 114.655 31.088C114.311 30.6926 113.758 30.4949 112.996 30.4949C112.361 30.4949 111.796 30.6898 111.304 31.0797C110.817 31.464 110.456 31.9848 110.221 32.642V38.8329H109.199V29.7931H110.178Z" fill="black"/>
<path d="M124.969 36.5353C124.969 36.0396 124.763 35.6414 124.35 35.3406C123.944 35.0398 123.328 34.8059 122.503 34.6388C121.678 34.4662 121.037 34.2712 120.578 34.054C120.126 33.8312 119.788 33.5611 119.565 33.2436C119.347 32.9261 119.238 32.5418 119.238 32.0906C119.238 31.3777 119.544 30.7901 120.157 30.3278C120.77 29.8599 121.555 29.626 122.512 29.626C123.548 29.626 124.379 29.8766 125.003 30.3779C125.633 30.8736 125.948 31.5225 125.948 32.3245H124.917C124.917 31.7954 124.688 31.3554 124.23 31.0045C123.778 30.6536 123.205 30.4781 122.512 30.4781C121.836 30.4781 121.292 30.6257 120.879 30.921C120.472 31.2106 120.269 31.5893 120.269 32.0572C120.269 32.5084 120.438 32.8593 120.776 33.1099C121.12 33.355 121.741 33.5805 122.64 33.7866C123.546 33.9927 124.221 34.2127 124.668 34.4467C125.121 34.6806 125.456 34.9619 125.673 35.2905C125.891 35.6191 126 36.0174 126 36.4852C126 37.2483 125.682 37.8582 125.046 38.3149C124.416 38.7716 123.591 39 122.572 39C121.489 39 120.61 38.7466 119.934 38.2397C119.264 37.7273 118.929 37.0812 118.929 36.3014H119.96C120 36.8862 120.252 37.343 120.716 37.6716C121.186 37.9946 121.804 38.1562 122.572 38.1562C123.288 38.1562 123.866 38.003 124.307 37.6967C124.748 37.3903 124.969 37.0032 124.969 36.5353Z" fill="black"/>
</svg>
