<?xml version="1.0" encoding="UTF-8"?>
<svg width="24px" height="24px" viewBox="0 0 24 24" version="1.1" xmlns="http://www.w3.org/2000/svg" xmlns:xlink="http://www.w3.org/1999/xlink">
    <!-- Generator: Sketch 52.6 (67491) - http://www.bohemiancoding.com/sketch -->
    <title>Desktop</title>
    <desc>Created with Sketch.</desc>
    <g id="Desktop" stroke="none" stroke-width="1" fill="none" fill-rule="evenodd" fill-opacity="0.54">
        <g id="Vector" transform="translate(6.000000, 5.000000)" fill="#000000" fill-rule="nonzero">
            <path d="M5.89425789,13.3851789 C6.64062,13.3851789 7.24513263,12.7806737 7.24513263,12.0343263 L4.54338316,12.0343263 C4.54338316,12.7806737 5.14789579,13.3851789 5.89425789,13.3851789 Z M9.94685263,9.33254737 L9.94685263,5.95538632 C9.94685263,3.87841263 8.84254737,2.14591263 6.90741579,1.68661684 L6.90741579,1.22731368 C6.90741579,0.666700632 6.45486947,0.214157263 5.89425789,0.214157263 C5.33364632,0.214157263 4.8811,0.666700632 4.8811,1.22731368 L4.8811,1.68661684 C2.94596842,2.14591263 1.84162632,3.87841263 1.84162632,5.95538632 L1.84162632,9.33254737 L0.490748632,10.6834737 L0.490748632,11.3588632 L11.2977789,11.3588632 L11.2977789,10.6834737 L9.94685263,9.33254737 Z" id="Shape"></path>
        </g>
    </g>
</svg>