<svg width="14" height="14" viewBox="0 0 14 14" fill="none" xmlns="http://www.w3.org/2000/svg">
<path d="M9.71348 8.4117C9.69003 8.3882 9.6582 8.375 9.625 8.375H9.08053L8.99208 8.28655C9.701 7.42593 10.125 6.32558 10.125 5.125C10.125 2.36346 7.88654 0.125 5.125 0.125C2.36346 0.125 0.125 2.36346 0.125 5.125C0.125 7.88654 2.36346 10.125 5.125 10.125C6.32557 10.125 7.42582 9.701 8.28635 8.99563L8.375 9.08428V9.625C8.375 9.6582 8.3882 9.69003 8.4117 9.71348L12.1617 13.456C12.2105 13.5047 12.2896 13.5047 12.3384 13.4559L13.4559 12.3384C13.5047 12.2896 13.5047 12.2105 13.456 12.1617L9.71348 8.4117ZM5.125 8.375C3.33029 8.375 1.875 6.91971 1.875 5.125C1.875 3.33029 3.33029 1.875 5.125 1.875C6.91971 1.875 8.375 3.33029 8.375 5.125C8.375 6.91971 6.91971 8.375 5.125 8.375Z" fill="#3D3B3B" stroke="#E0E0E0" stroke-width="0.25" stroke-linecap="round" stroke-linejoin="round"/>
</svg>
