<?xml version="1.0" encoding="UTF-8"?>
<svg width="24px" height="24px" viewBox="0 0 24 24" version="1.1" xmlns="http://www.w3.org/2000/svg" xmlns:xlink="http://www.w3.org/1999/xlink">
    <!-- Generator: Sketch 52.6 (67491) - http://www.bohemiancoding.com/sketch -->
    <title>Desktop</title>
    <desc>Created with Sketch.</desc>
    <g id="Desktop" stroke="none" stroke-width="1" fill="none" fill-rule="evenodd">
        <g id="share-icon" transform="translate(7.000000, 6.000000)" fill="#757575">
            <path d="M8.57142857,8.33435143 C8.13714,8.33435143 7.74571714,8.50292571 7.44857143,8.77431429 L3.37714286,6.40006286 C3.40857429,6.27149143 3.42857143,6.13721143 3.42857143,6.00006857 C3.42857143,5.86292571 3.40857429,5.72863714 3.37714286,5.60006571 L7.40571429,3.24864 C7.71143143,3.53435143 8.11999714,3.71149714 8.57142857,3.71149714 C9.51711429,3.71149714 10.2857143,2.94292286 10.2857143,1.99721143 C10.2857143,1.05149143 9.51711429,0.282924 8.57142857,0.282924 C7.62571714,0.282924 6.85714286,1.05149143 6.85714286,1.99721143 C6.85714286,2.13435429 6.87714,2.26863429 6.90857143,2.39720571 L2.88,4.74864 C2.57428286,4.46292 2.16571714,4.28578286 1.71428571,4.28578286 C0.768571714,4.28578286 0,5.05434857 0,6.00006857 C0,6.94578 0.768571714,7.71435429 1.71428571,7.71435429 C2.16571714,7.71435429 2.57428286,7.53720857 2.88,7.25149714 L6.95142857,9.6258 C6.92286,9.7458 6.90571714,9.87145714 6.90571714,10.0000286 C6.90571714,10.9200857 7.65143143,11.6658 8.57142857,11.6658 C9.4914,11.6658 10.2371143,10.9200857 10.2371143,10.0000286 C10.2371143,9.08005714 9.4914,8.33435143 8.57142857,8.33435143 Z" id="Path"></path>
        </g>
    </g>
</svg>