<?xml version="1.0" encoding="UTF-8"?>
<svg width="24px" height="24px" viewBox="0 0 24 24" version="1.1" xmlns="http://www.w3.org/2000/svg" xmlns:xlink="http://www.w3.org/1999/xlink">
    <!-- Generator: Sketch 52.6 (67491) - http://www.bohemiancoding.com/sketch -->
    <title>Desktop</title>
    <desc>Created with Sketch.</desc>
    <g id="Desktop" stroke="none" stroke-width="1" fill="none" fill-rule="evenodd">
        <g id="stackoverflow" transform="translate(6.000000, 5.000000)" fill="#6F6F6F">
            <polygon id="Path" points="9.78425 12.24356 9.78425 8.79774 10.94177 8.79774 10.94177 13.38722 0.4935546 13.38722 0.4935546 8.79774 1.651132 8.79774 1.651132 12.24356"></polygon>
            <path d="M2.929836,8.47105 L8.61245,9.64446 L8.85304,8.51564 L3.17037,7.34223 L2.929836,8.47105 Z M3.68151,5.797561 L8.9432,8.21856 L9.42431,7.17885 L4.162578,4.743018 L3.68151,5.797561 Z M5.139757,3.242883 L9.6047,6.91152 L10.34131,6.035204 L5.876395,2.366574 L5.139757,3.242883 Z M8.0262,0.5248292 L7.09408,1.20806 L10.5518,5.812415 L11.48385,5.129187 L8.0262,0.5248292 Z M2.809569,11.08513 L8.61245,11.08513 L8.61245,9.94147 L2.809569,9.94147 L2.809569,11.08513 Z" id="Shape" fill-rule="nonzero"></path>
        </g>
    </g>
</svg>