<?xml version="1.0" encoding="UTF-8"?>
<svg width="24px" height="24px" viewBox="0 0 24 24" version="1.1" xmlns="http://www.w3.org/2000/svg" xmlns:xlink="http://www.w3.org/1999/xlink">
    <!-- Generator: Sketch 52.6 (67491) - http://www.bohemiancoding.com/sketch -->
    <title>Artboard</title>
    <desc>Created with Sketch.</desc>
    <g id="Artboard" stroke="none" stroke-width="1" fill="none" fill-rule="evenodd">
        <g id="Vector" transform="translate(0.000000, 5.000000)" fill="#757575" fill-rule="nonzero">
            <path d="M0,8.4 L2.66666526,8.4 L2.66666526,5.6 L0,5.6 L0,8.4 Z M0,14 L2.66666526,14 L2.66666526,11.2 L0,11.2 L0,14 Z M0,2.8 L2.66666526,2.8 L2.66666526,0 L0,0 L0,2.8 Z M5.33333053,8.4 L24,8.4 L24,5.6 L5.33333053,5.6 L5.33333053,8.4 Z M5.33333053,14 L24,14 L24,11.2 L5.33333053,11.2 L5.33333053,14 Z M5.33333053,0 L5.33333053,2.8 L24,2.8 L24,0 L5.33333053,0 Z" id="Shape"></path>
        </g>
    </g>
</svg>