<?xml version="1.0" encoding="UTF-8"?>
<svg width="24px" height="24px" viewBox="0 0 24 24" version="1.1" xmlns="http://www.w3.org/2000/svg" xmlns:xlink="http://www.w3.org/1999/xlink">
    <!-- Generator: Sketch 52.6 (67491) - http://www.bohemiancoding.com/sketch -->
    <title>Desktop</title>
    <desc>Created with Sketch.</desc>
    <g id="Desktop" stroke="none" stroke-width="1" fill="none" fill-rule="evenodd">
        <g id="twitter" transform="translate(5.000000, 5.000000)" fill="#6F6F6F">
            <path d="M12.4676533,3.89969067 C12.4676533,4.050928 12.4676533,4.202156 12.4676533,4.35339333 C12.4676533,5.412036 12.1912933,6.47067867 11.9150267,7.378084 C11.6386667,8.28548933 11.08604,9.34416 10.3951867,10.2515467 C9.70433333,11.1589333 8.87536533,11.76392 7.77004667,12.3688133 C6.664728,12.9738 5.55940933,13.125 4.31592,13.125 C2.796108,13.125 1.41445733,12.6713067 0.0328124533,11.76392 C0.3091424,11.76392 0.447307467,11.76392 0.723636667,11.76392 C2.10528267,11.76392 3.21060133,11.3102267 4.31592,10.4027467 C3.62509467,10.4027467 3.07244,10.1003467 2.65794667,9.79785333 C2.24345333,9.49536 1.82896,8.89042933 1.69078933,8.28548933 C1.82896,8.28548933 1.96712133,8.28548933 2.24345333,8.28548933 C2.519776,8.28548933 2.796108,8.28548933 2.93427867,8.13426133 C2.24345333,8.13426133 1.69078933,7.68055867 1.276296,7.22684667 C0.861801733,6.773144 0.5854716,6.016976 0.5854716,5.26079867 C0.999964,5.412036 1.41445733,5.56327333 1.82896,5.56327333 C0.999964,4.95833333 0.5854716,4.050928 0.5854716,2.99228533 C0.5854716,2.38734533 0.723636667,1.93364267 0.999964,1.47994 C1.69078933,2.38734533 2.519776,3.14352267 3.62509467,3.74845333 C4.73042267,4.35339333 5.69757067,4.655868 6.94106,4.655868 C6.94106,4.35339333 6.94106,4.202156 6.94106,3.89969067 C6.94106,2.99228533 7.21738267,2.38734533 7.77004667,1.78240533 C8.32270133,1.17746533 8.87536533,0.875 9.5662,0.875 C10.3951867,0.875 11.08604,1.17746533 11.6386667,1.78240533 C12.32952,1.63117733 12.8821467,1.32870267 13.4347733,1.02623733 C13.29664,1.78240533 12.8821467,2.38734533 12.1912933,2.841048 C12.7440133,2.68981067 13.29664,2.53858267 13.8492667,2.38734533 C13.4347733,2.99228533 13.02028,3.445988 12.4676533,3.89969067 Z" id="Path"></path>
        </g>
    </g>
</svg>