<?xml version="1.0" encoding="UTF-8"?>
<svg width="24px" height="24px" viewBox="0 0 24 24" version="1.1" xmlns="http://www.w3.org/2000/svg" xmlns:xlink="http://www.w3.org/1999/xlink">
    <!-- Generator: Sketch 52.6 (67491) - http://www.bohemiancoding.com/sketch -->
    <title>Desktop</title>
    <desc>Created with Sketch.</desc>
    <g id="Desktop" stroke="none" stroke-width="1" fill="none" fill-rule="evenodd">
        <g id="Vector-(9)" transform="translate(6.000000, 5.000000)" fill="#FFFFFF" fill-rule="nonzero">
            <path d="M5.68806875,10.5361375 C6.37294,10.5361375 6.927655,9.981475 6.927655,9.2966125 C6.927655,8.61172375 6.37294,8.05700875 5.68806875,8.05700875 C5.0031975,8.05700875 4.4484825,8.61172375 4.4484825,9.2966125 C4.4484825,9.981475 5.0031975,10.5361375 5.68806875,10.5361375 Z M9.4068625,4.9580475 L8.7870125,4.9580475 L8.7870125,3.71846125 C8.7870125,2.00783625 7.39869375,0.619507 5.68806875,0.619507 C3.97744375,0.619507 2.5891075,2.00783625 2.5891075,3.71846125 L3.7667175,3.71846125 C3.7667175,2.6586175 4.628225,1.79711 5.68806875,1.79711 C6.7479125,1.79711 7.60942,2.6586175 7.60942,3.71846125 L7.60942,4.9580475 L1.96931875,4.9580475 C1.2844475,4.9580475 0.729736,5.5127625 0.729736,6.19763375 L0.729736,12.3955125 C0.729736,13.080375 1.2844475,13.635125 1.96931875,13.635125 L9.4068625,13.635125 C10.091725,13.635125 10.6463875,13.080375 10.6463875,12.3955125 L10.6463875,6.19763375 C10.6463875,5.5127625 10.091725,4.9580475 9.4068625,4.9580475 Z M9.4068625,12.3955125 L1.96931875,12.3955125 L1.96931875,6.19763375 L9.4068625,6.19763375 L9.4068625,12.3955125 Z" id="Shape"></path>
        </g>
    </g>
</svg>