<?xml version="1.0" encoding="UTF-8"?>
<svg width="24px" height="24px" viewBox="0 0 24 24" version="1.1" xmlns="http://www.w3.org/2000/svg" xmlns:xlink="http://www.w3.org/1999/xlink">
    <!-- Generator: Sketch 52.6 (67491) - http://www.bohemiancoding.com/sketch -->
    <title>Desktop</title>
    <desc>Created with Sketch.</desc>
    <g id="Desktop" stroke="none" stroke-width="1" fill="none" fill-rule="evenodd">
        <g id="Vector-(3)" transform="translate(5.000000, 7.000000)" fill="#FFFFFF" fill-rule="nonzero">
            <path d="M7.09348111,0.550672889 C4.15642111,0.550672889 1.64816556,2.36484111 0.631944444,4.92567444 C1.64816556,7.48650778 4.15642111,9.30066667 7.09348111,9.30066667 C10.0334889,9.30066667 12.5387889,7.48650778 13.5550333,4.92567444 C12.5387889,2.36484111 10.0334889,0.550672889 7.09348111,0.550672889 Z M7.09348111,7.84233333 C5.47222667,7.84233333 4.15642111,6.53567444 4.15642111,4.92567444 C4.15642111,3.31567444 5.47222667,2.00900778 7.09348111,2.00900778 C8.71476667,2.00900778 10.0305333,3.31567444 10.0305333,4.92567444 C10.0305333,6.53567444 8.71476667,7.84233333 7.09348111,7.84233333 Z M7.09348111,3.17567444 C6.12131333,3.17567444 5.33124667,3.96025778 5.33124667,4.92567444 C5.33124667,5.89109111 6.12131333,6.67567444 7.09348111,6.67567444 C8.06563333,6.67567444 8.8557,5.89109111 8.8557,4.92567444 C8.8557,3.96025778 8.06563333,3.17567444 7.09348111,3.17567444 Z" id="Shape"></path>
        </g>
    </g>
</svg>