<?xml version="1.0" encoding="UTF-8"?>
<svg width="24px" height="24px" viewBox="0 0 24 24" version="1.1" xmlns="http://www.w3.org/2000/svg" xmlns:xlink="http://www.w3.org/1999/xlink">
    <!-- Generator: Sketch 52.6 (67491) - http://www.bohemiancoding.com/sketch -->
    <title>Desktop</title>
    <desc>Created with Sketch.</desc>
    <g id="Desktop" stroke="none" stroke-width="1" fill="none" fill-rule="evenodd">
        <g id="view-dark-icon" transform="translate(6.000000, 8.000000)" fill="#757575" fill-rule="nonzero">
            <path d="M6,0.25 C3.5,0.25 1.365,1.805 0.5,4 C1.365,6.195 3.5,7.75 6,7.75 C8.50246666,7.75 10.635,6.195 11.5,4 C10.635,1.805 8.50246666,0.25 6,0.25 Z M6,6.5 C4.62,6.5 3.5,5.38 3.5,4 C3.5,2.62 4.62,1.5 6,1.5 C7.38,1.5 8.5,2.62 8.5,4 C8.5,5.38 7.38,6.5 6,6.5 Z M6,2.5 C5.1725,2.5 4.5,3.1725 4.5,4 C4.5,4.8275 5.1725,5.5 6,5.5 C6.82753334,5.5 7.5,4.8275 7.5,4 C7.5,3.1725 6.82753334,2.5 6,2.5 Z" id="Shape"></path>
        </g>
    </g>
</svg>